<svg xmlns="http://www.w3.org/2000/svg" xmlns:xlink="http://www.w3.org/1999/xlink" width="500" zoomAndPan="magnify" viewBox="0 0 375 374.999991" height="500" preserveAspectRatio="xMidYMid meet" version="1.2"><defs><clipPath id="c76a26291b"><path d="M 81 129 L 275 129 L 275 373 L 81 373 Z M 81 129 "/></clipPath><clipPath id="7ecfc35852"><path d="M 70.570312 4.453125 L 301.527344 -0.00390625 L 308.679688 370.425781 L 77.722656 374.882812 Z M 70.570312 4.453125 "/></clipPath><clipPath id="b8378f847b"><path d="M 301.234375 0 L 70.277344 4.457031 L 77.429688 374.890625 L 308.386719 370.429688 Z M 301.234375 0 "/></clipPath><clipPath id="40ba717395"><path d="M 107 74 L 305 74 L 305 271 L 107 271 Z M 107 74 "/></clipPath><clipPath id="3bfa89c180"><path d="M 70.570312 4.453125 L 301.527344 -0.00390625 L 308.679688 370.425781 L 77.722656 374.882812 Z M 70.570312 4.453125 "/></clipPath><clipPath id="c737df1d41"><path d="M 301.234375 0 L 70.277344 4.457031 L 77.429688 374.890625 L 308.386719 370.429688 Z M 301.234375 0 "/></clipPath><clipPath id="e70ab3d60a"><path d="M 72 3 L 146 3 L 146 89 L 72 89 Z M 72 3 "/></clipPath><clipPath id="6c76a5f182"><path d="M 70.570312 4.453125 L 301.527344 -0.00390625 L 308.679688 370.425781 L 77.722656 374.882812 Z M 70.570312 4.453125 "/></clipPath><clipPath id="f35cac4466"><path d="M 301.234375 0 L 70.277344 4.457031 L 77.429688 374.890625 L 308.386719 370.429688 Z M 301.234375 0 "/></clipPath></defs><g id="af39b51f36"><g clip-rule="nonzero" clip-path="url(#c76a26291b)"><g clip-rule="nonzero" clip-path="url(#7ecfc35852)"><g clip-rule="nonzero" clip-path="url(#b8378f847b)"><path style=" stroke:none;fill-rule:nonzero;fill:#e07a5f;fill-opacity:1;" d="M 125.132812 207.1875 C 127.707031 212.605469 130.457031 217.730469 133.382812 222.570312 C 136.421875 236.523438 143.925781 251.304688 157.265625 266.039062 C 187.300781 299.214844 240.585938 299.347656 274.5 284.347656 C 245.863281 332.566406 196.726562 372.570312 196.726562 372.570312 C 196.726562 372.570312 83.425781 287.382812 81.703125 198.085938 C 81.210938 172.507812 89.355469 148.78125 103.460938 129.691406 C 107.425781 159.277344 114.703125 185.316406 125.132812 207.1875 Z M 125.132812 207.1875 "/></g></g></g><g clip-rule="nonzero" clip-path="url(#40ba717395)"><g clip-rule="nonzero" clip-path="url(#3bfa89c180)"><g clip-rule="nonzero" clip-path="url(#c737df1d41)"><path style=" stroke:none;fill-rule:nonzero;fill:#e07a5f;fill-opacity:1;" d="M 220.679688 270.539062 C 203.117188 270.402344 186.589844 264.941406 171.890625 254.46875 C 164.019531 248.875 156.667969 241.84375 149.960938 233.414062 C 143.25 224.980469 137.179688 215.15625 131.871094 203.972656 C 121.285156 181.773438 113.691406 154.21875 109.984375 121.660156 C 108.3125 106.851562 107.429688 90.996094 107.441406 74.136719 C 111.09375 87.046875 115.089844 99.898438 119.429688 112.261719 C 126.773438 133.105469 135.15625 152.625 144.667969 168.925781 C 159.386719 194.1875 176.828125 211.742188 197.316406 214.628906 C 248.984375 221.890625 250.683594 145.175781 195.59375 143.160156 C 178.746094 142.554688 161.9375 150.089844 149.792969 162.855469 C 141.675781 148.511719 133.835938 130.675781 126.46875 109.78125 C 126.171875 108.933594 125.871094 108.074219 125.574219 107.210938 C 143.800781 93.273438 166.464844 84.816406 191.160156 84.335938 C 252.804688 83.148438 303.734375 132.148438 304.921875 193.777344 C 304.9375 194.578125 305.019531 198.722656 304.824219 200.910156 C 300.578125 247.929688 264.382812 270.929688 220.679688 270.539062 Z M 220.679688 270.539062 "/></g></g></g><g clip-rule="nonzero" clip-path="url(#e70ab3d60a)"><g clip-rule="nonzero" clip-path="url(#6c76a5f182)"><g clip-rule="nonzero" clip-path="url(#f35cac4466)"><path style=" stroke:none;fill-rule:nonzero;fill:#e07a5f;fill-opacity:1;" d="M 105.804688 43.296875 L 97.8125 86.757812 L 72.324219 88.722656 L 102.757812 3.832031 L 145.859375 83.046875 L 120.367188 85.015625 Z M 105.804688 43.296875 "/></g></g></g></g></svg>